<mxfile host="app.diagrams.net" modified="2023-07-12T18:54:46.669Z" agent="Mozilla/5.0 (Windows NT 10.0; Win64; x64) AppleWebKit/537.36 (KHTML, like Gecko) Chrome/114.0.0.0 Safari/537.36" version="21.6.2" etag="rorF7pdXfCKBQ01P58R3" type="github">
  <diagram name="Page-1" id="nv0in6sxqN7r_D8xVUoy">
    <mxGraphModel>
      <root>
        <mxCell id="0" />
        <mxCell id="1" parent="0" />
      </root>
    </mxGraphModel>
  </diagram>
</mxfile>
